Coordinates
version=1
nRows=10
nColumns=63
inDegrees=yes

Units are S.I. units (second, meters, Newtons, ...)
If the header above contains a line with 'inDegrees', this indicates whether rotational values are in degrees (yes) or radians (no).

endheader
time	pelvis_tilt	pelvis_list	pelvis_rotation	pelvis_tx	pelvis_ty	pelvis_tz	hip_flexion_r	hip_adduction_r	hip_rotation_r	knee_angle_r	knee_angle_r_beta	ankle_angle_r	subtalar_angle_r	mtp_angle_r	hip_flexion_l	hip_adduction_l	hip_rotation_l	knee_angle_l	knee_angle_l_beta	ankle_angle_l	subtalar_angle_l	mtp_angle_l	L5_S1_Flex_Ext	L5_S1_Lat_Bending	L5_S1_axial_rotation	L4_L5_Flex_Ext	L4_L5_Lat_Bending	L4_L5_axial_rotation	L3_L4_Flex_Ext	L3_L4_Lat_Bending	L3_L4_axial_rotation	L2_L3_Flex_Ext	L2_L3_Lat_Bending	L2_L3_axial_rotation	L1_L2_Flex_Ext	L1_L2_Lat_Bending	L1_L2_axial_rotation	L1_T12_Flex_Ext	L1_T12_Lat_Bending	L1_T12_axial_rotation	Abs_r3	Abs_r2	Abs_r1	Abs_t1	Abs_t2	neck_flexion	neck_bending	neck_rotation	arm_flex_r	arm_add_r	arm_rot_r	elbow_flex_r	pro_sup_r	wrist_flex_r	wrist_dev_r	arm_flex_l	arm_add_l	arm_rot_l	elbow_flex_l	pro_sup_l	wrist_flex_l	wrist_dev_l
      0.00000000	     -1.55502970	     -4.93662023	     81.72165813	      0.10583467	      1.02061899	      0.33641327	     10.34269570	     -1.62443824	    -17.59144668	     19.27613689	      0.33643206	     37.73138555	     18.30680535	      0.00000000	      7.37772318	      0.14297626	     -4.24485893	     13.48331731	      0.23532828	     33.50222010	     -2.66035050	      0.00000000	     -0.06965514	      0.35877326	      0.17984082	     -0.12935656	      0.47716844	      0.19108087	     -0.11443643	      0.87232131	      0.19108087	     -0.07960886	      0.87232131	      0.15736072	     -0.06468176	      0.73161043	      0.14612067	     -0.03980095	      0.55573978	      0.13488061	     -0.49753971	      4.05851488	      1.00022068	      0.00000000	      0.00000000	     14.45873042	     -2.16535212	     10.79545918	     18.74111244	     -7.02030112	     66.76841236	     37.04456099	     88.51921450	      4.84698011	      2.79573027	     25.24624884	     -1.74092860	     88.42468813	     33.20732190	     87.99392054	     -2.13708275	      3.84260067
      0.01724138	     -1.46487863	     -5.28073050	     82.61040927	      0.10510288	      1.01929030	      0.33775735	     10.53588370	     -1.41399275	    -17.36018468	     18.80853043	      0.32827078	     38.41629269	     18.23989806	      0.00000000	      8.33640949	     -0.13891018	     -4.08634691	     14.62409283	      0.25523857	     34.02996917	     -1.32356268	      0.00000000	     -0.07131698	      0.36750939	      0.05958691	     -0.13244276	      0.48878749	      0.06331110	     -0.11716667	      0.89356233	      0.06331110	     -0.08150818	      0.89356233	      0.05213855	     -0.06622495	      0.74942514	      0.04841437	     -0.04075052	      0.56927204	      0.04469019	     -0.50941006	      4.15733969	      0.33140454	      0.00000000	      0.00000000	     15.21393927	     -2.00452611	     11.29377839	     18.23852838	     -6.90320877	     64.21543004	     36.90544639	     88.15009053	      5.61125694	      5.05250712	     25.13781342	     -1.39395357	     88.66410859	     32.68925791	     87.93290355	     -4.75301584	      2.42802970
      0.03448276	     -1.65233194	     -5.44396564	     83.13318967	      0.10498567	      1.01824199	      0.33893405	     10.62721491	     -1.54677431	    -17.18988015	     18.62204748	      0.32501604	     38.86183057	     18.09935543	      0.00000000	      8.97532438	     -0.04479722	     -3.72938870	     15.45631795	      0.26976364	     34.19149968	     -0.89876842	      0.00000000	     -0.08322690	      0.33417998	     -0.03816344	     -0.15456067	      0.44445937	     -0.04054865	     -0.13673347	      0.81252520	     -0.04054865	     -0.09512002	      0.81252520	     -0.03339301	     -0.07728450	      0.68145981	     -0.03100779	     -0.04755585	      0.51764478	     -0.02862258	     -0.59448139	      3.78031073	     -0.21225360	      0.00000000	      0.00000000	     15.86456706	     -1.62841489	     11.50698315	     18.32174260	     -6.67146438	     64.21432965	     36.62208048	     88.09077917	      5.30358493	      5.69694356	     25.11465339	     -1.30928356	     89.44908469	     32.67543674	     88.04978413	     -5.61245819	      2.47502152
      0.05172414	     -1.84024747	     -5.51591344	     83.70588993	      0.10474328	      1.01741551	      0.33985389	     10.59526420	     -1.77513328	    -17.40214163	     18.60680510	      0.32475001	     39.06418841	     17.98336300	      0.00000000	      9.42204066	      0.08003990	     -3.40030521	     16.08130196	      0.28067167	     34.40789112	     -0.22054199	      0.00000000	     -0.09924741	      0.29909003	     -0.15427715	     -0.18431236	      0.39778974	     -0.16391947	     -0.16305356	      0.72720750	     -0.16391947	     -0.11342986	      0.72720750	     -0.13499250	     -0.09216114	      0.60990439	     -0.12535018	     -0.05670997	      0.46329045	     -0.11570786	     -0.70891429	      3.38336622	     -0.85804321	      0.00000000	      0.00000000	     16.42298008	     -1.09898078	     11.79283472	     18.53518605	     -6.60850520	     65.00658813	     36.71860241	     88.30480037	      5.06671283	      6.08177646	     25.40763177	     -1.09696172	     91.93432406	     32.75536317	     88.19429110	     -6.21416827	      3.14824036
      0.06896552	     -2.17665784	     -5.56711232	     83.78536750	      0.10467844	      1.01675385	      0.34013576	     10.47035223	     -2.11339790	    -17.28626345	     18.45829158	      0.32215796	     39.07765774	     17.92142781	      0.00000000	      9.60338775	      0.39681445	     -3.24748910	     16.30264359	      0.28453481	     34.51860511	      0.04876142	      0.00000000	     -0.10386228	      0.25424211	     -0.21621537	     -0.19288265	      0.33814201	     -0.22972883	     -0.17063535	      0.61816427	     -0.22972883	     -0.11870420	      0.61816427	     -0.18918845	     -0.09644652	      0.51845051	     -0.17567499	     -0.05934691	      0.39382103	     -0.16216152	     -0.74187790	      2.87603759	     -1.20252500	      0.00000000	      0.00000000	     16.95629514	     -0.85699960	     11.94261287	     18.50792293	     -6.66727558	     65.61444249	     37.12242793	     88.57014403	      5.10332748	      5.95502256	     25.14585771	     -0.87062848	     93.27349138	     32.66591765	     88.45261107	     -6.07716149	      3.64839147
      0.08620690	     -2.45463185	     -5.37413480	     84.09527250	      0.10516775	      1.01665560	      0.34095691	     10.20050934	     -2.46711931	    -17.69174465	     18.65381432	      0.32557048	     38.95685968	     17.78424126	      0.00000000	      9.62053608	      0.57152037	     -3.55073125	     16.62991278	      0.29024673	     34.56274029	      1.05009782	      0.00000000	     -0.14464117	      0.18946199	     -0.27718998	     -0.26861311	      0.25198445	     -0.29451435	     -0.23763098	      0.46065789	     -0.29451435	     -0.16531039	      0.46065789	     -0.24254123	     -0.13431379	      0.38635089	     -0.22521686	     -0.08264796	      0.29347662	     -0.20789248	     -1.03315740	      2.14323194	     -1.54164751	      0.00000000	      0.00000000	     17.14771875	     -0.11417700	     11.29072287	     19.41083518	     -6.49396364	     69.27336389	     36.79446285	     88.81082729	      3.14319245	      3.64184920	     26.22989860	     -0.47200226	     99.11961975	     32.92288221	     88.31991243	     -7.01282812	      4.73741237
      0.10344828	     -2.73451092	     -5.30978527	     84.16478314	      0.10543505	      1.01641688	      0.34130151	     10.06820565	     -2.78128823	    -17.71633214	     18.76692883	      0.32754470	     38.83141154	     17.58542392	      0.00000000	      9.64316340	      0.83025607	     -3.51642358	     16.73676590	      0.29211167	     34.55849083	      1.27799038	      0.00000000	     -0.16486369	      0.14596009	     -0.33089531	     -0.30616836	      0.19412692	     -0.35157626	     -0.27085456	      0.35488736	     -0.35157626	     -0.18842271	      0.35488736	     -0.28953339	     -0.15309242	      0.29764181	     -0.26885244	     -0.09420311	      0.22609218	     -0.24817148	     -1.17760486	      1.65112971	     -1.84034042	      0.00000000	      0.00000000	     17.48323593	      0.44594387	     11.69522211	     19.48223267	     -6.40404040	     69.89748880	     37.08227152	     88.91722908	      3.00424923	      3.05572660	     26.34798126	     -0.39657606	    100.91310322	     33.28140987	     88.50019795	     -6.07385383	      5.46343238
      0.12068966	     -2.97905894	     -5.22705534	     84.11563391	      0.10574856	      1.01635393	      0.34129294	      9.88746657	     -3.03670682	    -17.66807808	     18.78451589	      0.32785165	     38.74933869	     17.51779356	      0.00000000	      9.55284409	      1.05906341	     -3.61712337	     16.72691499	      0.29193974	     34.49708409	      1.42406432	      0.00000000	     -0.18253242	      0.10472346	     -0.33060615	     -0.33898095	      0.13928221	     -0.35126904	     -0.29988251	      0.25462463	     -0.35126904	     -0.20861630	      0.25462463	     -0.28928038	     -0.16949960	      0.21355209	     -0.26861750	     -0.10429902	      0.16221664	     -0.24795462	     -1.30381081	      1.18465276	     -1.83873224	      0.00000000	      0.00000000	     17.61930715	      0.83810195	     11.57892740	     19.35998108	     -6.42844143	     70.09132036	     37.41284554	     88.96041201	      2.59789394	      1.98702430	     26.54760177	     -0.21326319	    103.02207373	     33.64202021	     88.59481088	     -5.58192305	      6.18243854
      0.13793103	     -3.16170006	     -5.17996896	     83.94774686	      0.10597842	      1.01644466	      0.34100676	      9.77963409	     -3.21817863	    -17.45546362	     18.78599931	      0.32787754	     38.71992373	     17.50922300	      0.00000000	      9.43418596	      1.23134033	     -3.86359006	     16.66266365	      0.29081834	     34.37330421	      1.47012000	      0.00000000	     -0.19543081	      0.07438470	     -0.25958033	     -0.36293456	      0.09893165	     -0.27580410	     -0.32107328	      0.18085895	     -0.27580410	     -0.22335787	      0.18085895	     -0.22713279	     -0.18147705	      0.15168527	     -0.21090902	     -0.11166917	      0.11522189	     -0.19468525	     -1.39594274	      0.84145456	     -1.44370794	      0.00000000	      0.00000000	     17.66721966	      1.02431794	     11.15581971	     18.91675458	     -6.58752942	     69.30459780	     37.76152796	     88.95755529	      2.21130092	      0.92639484	     26.73878087	      0.06374477	    105.09018588	     33.86640475	     88.64964421	     -5.85750389	      6.13172998
      0.15517241	     -3.19933602	     -5.20086415	     83.70202683	      0.10625729	      1.01650858	      0.34102262	      9.80378652	     -3.20311795	    -17.04551577	     18.78351445	      0.32783417	     38.72304226	     17.43847099	      0.00000000	      9.39569752	      1.23471990	     -4.15809382	     16.58675881	      0.28949355	     34.47878653	      1.52698327	      0.00000000	     -0.21061751	      0.06489922	     -0.18045347	     -0.39113778	      0.08631596	     -0.19173181	     -0.34602351	      0.15779596	     -0.19173181	     -0.24071476	      0.15779596	     -0.15789679	     -0.19557942	      0.13234249	     -0.14661844	     -0.12034685	      0.10052889	     -0.13534010	     -1.50441983	      0.73415294	     -1.00362807	      0.00000000	      0.00000000	     17.58678755	      0.98348297	     10.94146548	     18.56591865	     -6.87138779	     68.27906746	     38.41154156	     88.90232058	      2.20789720	      0.97117552	     26.89115559	      0.22265925	    106.28442660	     34.04977097	     88.69013829	     -6.18057946	      5.71520639
